<svg width="24" height="24" viewBox="0 0 24 24" fill="none" xmlns="http://www.w3.org/2000/svg">
<path d="M10.8567 18.8653C10.8567 19.4977 11.3694 20.0104 12.0018 20.0104C12.6324 20.0104 13.145 19.4979 13.1459 18.8663L13.1447 13.1456L18.8664 13.1458C19.4979 13.145 20.0105 12.6324 20.0105 12.0017C20.0105 11.7307 19.9164 11.4818 19.7597 11.2863C19.5494 11.0245 19.2268 10.8566 18.8653 10.8566L13.1455 10.8563L13.1452 5.13282C13.1443 4.50128 12.6316 3.98864 12.001 3.98861C11.7318 3.9886 11.4838 4.0817 11.2884 4.23658C11.0247 4.44678 10.856 4.77037 10.856 5.13363L10.8563 10.8571L5.1337 10.8559C4.50123 10.8559 3.98865 11.3685 3.98868 12.001C3.98871 12.6316 4.50135 13.1442 5.13289 13.1452L10.8564 13.1454L10.8567 18.8653Z" fill="white"/>
</svg>
